<svg id="Layer_1" enable-background="new 0 0 512.21 512.21" height="512" viewBox="0 0 512.21 512.21" width="512" xmlns="http://www.w3.org/2000/svg"><g><g><g><g><g><ellipse cx="124.708" cy="387.419" fill="#ffe66b" rx="117.208" ry="117.23"/><path d="m124.708 270.189c-5.082 0-10.088.324-15 .952 57.648 7.366 102.208 56.617 102.208 116.279 0 59.516-44.345 108.669-101.789 116.22 4.8.665 9.668 1.011 14.581 1.011 64.732 0 117.208-52.486 117.208-117.23.001-64.747-52.475-117.232-117.208-117.232z" fill="#ffdc30"/><g><path d="m206.544 387.127c0 45.091-36.546 81.644-81.628 81.644s-81.628-36.553-81.628-81.644z" fill="#fff"/></g></g><g><ellipse cx="207.79" cy="124.88" fill="#ffe66b" rx="117.208" ry="117.23"/><path d="m207.79 7.65c-5.082 0-10.088.324-15 .952 57.648 7.366 102.208 56.617 102.208 116.279 0 59.516-44.345 108.669-101.789 116.22 4.8.665 9.668 1.011 14.581 1.011 64.732 0 117.208-52.486 117.208-117.23.001-64.747-52.475-117.232-117.208-117.232z" fill="#ffdc30"/><g><g><path d="m320.393 142.885c-9.896-.001-18.466 5.743-22.672 14.125-4.204-8.382-12.773-14.128-22.669-14.128-14.048-.001-25.437 11.566-25.438 25.837-.003 34.853 48.102 53.557 48.102 53.557s48.108-18.697 48.11-53.549c.002-14.272-11.385-25.841-25.433-25.842z" fill="#ff815c"/></g></g></g><g><ellipse cx="387.292" cy="342.628" fill="#ffe66b" rx="117.208" ry="117.23"/><path d="m387.292 225.398c-5.082 0-10.088.324-15 .952 57.648 7.365 102.208 56.617 102.208 116.278 0 57.185-46.697 108.47-102.627 116.22 5.046.663 10.192 1.01 15.419 1.01 62.152 0 117.208-55.137 117.208-117.23 0-64.745-52.476-117.23-117.208-117.23z" fill="#ffdc30"/><g><g fill="#3498ac"><path d="m434.074 361.975h24.625c13.485 0 25.326-8.967 28.983-21.95l12.762-43.173c2.503-8.467-3.595-17.068-12.416-17.465-60.312-2.714-97.302 14.375-97.302 14.375l14.592 47.027c3.909 12.599 15.565 21.186 28.756 21.186z"/><path d="m340.509 361.975h-24.625c-13.485 0-25.326-8.967-28.983-21.95l-12.762-43.173c-2.503-8.467 3.595-17.068 12.416-17.465 60.312-2.714 97.302 14.375 97.302 14.375l-14.592 47.027c-3.908 12.599-15.564 21.186-28.756 21.186z"/></g></g></g></g></g></g><g><path d="m41.328 216.842c9.992 0 10.008-15 0-15-9.992 0-10.009 15 0 15z"/><path d="m124.708 262.689c-68.765 0-124.708 55.954-124.708 124.73 0 66.445 58.274 124.73 124.708 124.73 68.765 0 124.708-55.954 124.708-124.73s-55.943-124.73-124.708-124.73zm0 234.461c-27.641 0-55.562-12.076-76.605-33.132-70.415-68.735-19.856-186.252 76.607-186.329 145.536 6.026 145.502 213.453-.002 219.461z"/><path d="m68.453 367.392c4.143 0 7.5-3.358 7.5-7.5 0-5.282 4.296-9.579 9.575-9.579 5.28 0 9.576 4.297 9.576 9.579.337 9.923 14.66 9.929 15 0 0-13.553-11.024-24.578-24.576-24.578-13.551 0-24.575 11.026-24.575 24.579 0 4.141 3.358 7.499 7.5 7.499z"/><path d="m147.229 367.392c4.143 0 7.5-3.358 7.5-7.5 0-5.282 4.296-9.579 9.575-9.579 5.28 0 9.576 4.297 9.576 9.579.337 9.923 14.66 9.929 15 0 0-13.553-11.024-24.578-24.576-24.578-13.551 0-24.575 11.026-24.575 24.579 0 4.141 3.357 7.499 7.5 7.499z"/><path d="m35.788 387.127c0 17.331 4.998 34.151 14.454 48.645 2.264 3.47 6.911 4.447 10.38 2.183 3.469-2.263 4.446-6.91 2.183-10.379-6.489-9.946-10.453-21.212-11.64-32.948h147.503c-4.648 51.928-63.785 83.423-109.638 57.378-8.852-4.517-15.787 8.007-7.275 13.117 58.398 33.036 132.865-10.852 132.288-77.996.001-4.141-3.357-7.499-7.499-7.499h-163.256c-4.142-.001-7.5 3.357-7.5 7.499z"/><path d="m207.79 249.61c27.431 0 54.198-9.117 75.879-25.748 6.179 3.362 10.716 5.164 11.33 5.403 1.811.68 3.623.68 5.435 0 2.16-.839 52.891-21.01 52.894-60.54.001-14.301-8.941-26.527-21.462-31.253 3.1-30.47-5.096-61.165-23.128-85.845-5.517-7.592-17.902.879-12.135 8.817 15.78 21.598 22.991 48.437 20.381 75.12-7.315.759-14.052 3.936-19.261 8.952-6.009-5.789-14.049-9.135-22.669-9.136-18.159-.002-32.937 14.953-32.939 33.336-.001 20.934 14.225 36.439 27.93 46.521-72.189 50.438-170.298-4.447-171.963-90.359-.758-87.021 99.818-140.329 171.278-90.832 7.763 5.275 16.548-6.891 8.432-12.406-81.261-56.272-195.562 4.306-194.709 103.242-.001 66.443 58.273 124.728 124.707 124.728zm49.324-80.891c.001-10.112 8.048-18.338 17.938-18.338 6.758 0 12.875 3.829 15.966 9.991 1.292 2.575 3.969 3.891 6.704 4.138 2.837 0 5.431-1.601 6.703-4.136 3.092-6.161 9.21-9.989 15.968-9.989 9.89.001 17.935 8.229 17.934 18.34-.002 24.923-31.13 41.048-40.618 45.383-9.508-4.322-40.596-20.374-40.595-45.389z"/><path d="m204.609 140.044c-9.634-.229-9.806 14.92-.123 14.999 3.648.03 6.593 2.926 6.563 6.454-.02 2.399-1.41 4.567-3.628 5.658-5.437 2.673-5.502 10.644-.11 13.406 2.2 1.126 3.555 3.317 3.535 5.715-.028 3.511-2.989 6.347-6.611 6.347-9.822-.123-9.828 15 .002 15 11.835 0 21.512-9.483 21.609-21.224.037-4.547-1.356-8.856-3.871-12.422 2.572-3.524 4.036-7.81 4.074-12.356.097-11.801-9.522-21.48-21.44-21.577z"/><path d="m143.827 105.871c.347 9.93 14.657 9.925 15 0 0-5.282 4.296-9.578 9.575-9.578 5.28 0 9.576 4.297 9.576 9.579.337 9.923 14.66 9.929 15 0-1.35-32.609-47.807-32.597-49.151-.001z"/><path d="m237.603 105.871c.528-12.71 18.628-12.701 19.151 0 .337 9.923 14.659 9.929 15 0 0-13.553-11.024-24.578-24.576-24.578-13.551 0-24.575 11.026-24.575 24.579 0 9.385 15 9.812 15-.001z"/><path d="m506.236 305.043c5.764-18.447-1.367-27.858-16.112-33-47.182-71.378-158.813-71.914-205.655.011-16.61 2.119-20.594 18.773-15.917 32.35-26.436 78.893 35.439 163.999 118.741 162.954 80.679.425 145.287-85.114 118.943-162.315zm-18.546-18.164c4.392.808 6.246 3.423 5.561 7.847l-12.788 43.266c-2.734 9.705-11.684 16.483-21.764 16.483h-24.625c-9.964 0-18.642-6.394-21.594-15.909l-12.524-40.362c12.514-4.42 43.694-13.303 87.734-11.325zm-100.398-53.981c32.38 0 62.895 14.297 83.644 38.725-45.328.633-74.729 11.697-81.766 14.639h-3.757c-7.035-2.941-36.431-14.004-81.766-14.638 20.751-24.425 51.279-38.726 83.645-38.726zm-105.069 56.529c.643-.902 2.104-2.433 4.67-2.548 29.348-1.32 59.867 1.555 87.73 11.34l-12.52 40.346c-2.953 9.516-11.631 15.91-21.594 15.91h-24.625c-10.081 0-19.03-6.778-21.79-16.576l-12.762-43.173c-.537-1.82-.213-3.751.891-5.299zm181.674 129.8c-71.217 72.823-192.226 16.076-186.097-83.539l1.883 6.371c4.546 16.143 19.433 27.417 36.201 27.417h24.625c16.572 0 31.008-10.635 35.92-26.464l10.862-35.006 10.863 35.006c4.911 15.829 19.347 26.464 35.92 26.464h24.625c16.768 0 31.654-11.274 36.175-27.324l1.907-6.451c2.048 30.316-10.096 60.63-32.884 83.526z"/><path d="m424.627 389.624c-19.678 20.507-54.994 20.506-74.671 0-7.232-6.773-17.397 3.328-10.607 10.606 25.261 26.326 70.625 26.327 95.886-.001 6.769-7.255-3.336-17.387-10.608-10.605z"/><path d="m306.342 321.891c1.919 0 3.839-.732 5.304-2.197l10.669-10.669c6.636-6.637-3.668-17.544-10.607-10.606l-10.669 10.669c-4.523 4.523-1.477 12.803 5.303 12.803z"/><path d="m320.125 340.089c3.536 2.929 7.072 2.929 10.607 0l23.937-23.937c6.637-6.637-3.668-17.544-10.607-10.606l-23.937 23.937c-2.929 2.928-2.929 7.677 0 10.606z"/><path d="m425.338 321.891c1.919 0 3.839-.732 5.304-2.197l10.669-10.669c6.636-6.637-3.668-17.544-10.607-10.606l-10.669 10.669c-4.523 4.523-1.477 12.803 5.303 12.803z"/><path d="m439.121 340.089c3.536 2.929 7.072 2.929 10.607 0l23.937-23.937c6.637-6.637-3.668-17.544-10.607-10.606l-23.937 23.937c-2.929 2.928-2.929 7.677 0 10.606z"/><path d="m384.114 82.272c9.992 0 10.008-15 0-15-9.992 0-10.009 15 0 15z"/><path d="m436.263 181.333c9.992 0 10.008-15 0-15-9.992 0-10.009 15 0 15z"/><path d="m282.632 479.65c-9.992 0-10.008 15 0 15 9.992 0 10.009-15 0-15z"/></g></g></svg>