<svg id="Capa_1" enable-background="new 0 0 511.771 511.771" height="512" viewBox="0 0 511.771 511.771" width="512" xmlns="http://www.w3.org/2000/svg"><g><g><g id="XMLID_249_"><g><path d="m271.4 223.642-111.141 82.685-51.819-29.505h-87.644c-3.831 0-6.921 3.135-6.867 6.966l1.797 125.256c.056 3.9 3.346 6.971 7.241 6.758l65.062-3.55 41.28 22.63c7.4 4.06 15.71 6.18 24.15 6.18h131.55v-217.42z" fill="#ffdfcf"/></g></g><path d="m125.062 412.433-38.023-20.291c-2.868-1.53-6.099-2.248-9.344-2.076l-62.192 3.304.225 15.674c.056 3.9 3.346 6.971 7.241 6.758l65.062-3.55 41.28 22.63c7.4 4.06 15.71 6.18 24.15 6.18h131.55v-22.449h-135.14c-8.67 0-17.207-2.12-24.809-6.18z" fill="#ffcebf"/><g><path d="m285.01 251.539h-31.955c-23.217 0-42.105 18.889-42.105 42.105 0 8.103 2.307 15.675 6.29 22.105-3.983 6.43-6.29 14.002-6.29 22.105s2.307 15.676 6.29 22.105c-3.983 6.43-6.29 14.002-6.29 22.105s2.307 15.676 6.29 22.105c-3.983 6.43-6.29 14.002-6.29 22.105 0 5.202.955 10.183 2.688 14.787h71.373v-189.522z" fill="#ffcebf"/><path d="m271.4 223.642-111.141 82.685-38.389-21.858v37.808c0 18.768 15.046 34.285 33.814 34.384.122.001.244.001.366.001h16.79c29.923 0 57.861-16.058 72.914-41.907l3.407-5.853 35.849-68.17v-17.09z" fill="#ffcebf"/><path d="m271.4 223.642-39.74 75.57-3.19 5.48c-11.53 19.8-32.71 31.97-55.63 31.97h-16.79c-25.85 0-46.93-20.717-47.379-46.563l-.231-13.277 71.13-45.65c7.66-4.91 16.57-7.53 25.67-7.53h44.8z" fill="#ffdfcf"/><path d="m293.515 504.271h-40.259c-1.774 0-3.211-1.438-3.211-3.211v-406.421h46.682v406.421c-.001 1.773-1.439 3.211-3.212 3.211z" fill="#9b8e99"/><path d="m304.669 315.749h-51.615c-12.208 0-22.105-9.897-22.105-22.105 0-12.208 9.897-22.105 22.105-22.105h51.615c12.208 0 22.105 9.897 22.105 22.105.001 12.208-9.896 22.105-22.105 22.105z" fill="#ffdfcf"/><path d="m302.045 359.959h-48.991c-12.208 0-22.105-9.897-22.105-22.105 0-12.208 9.897-22.105 22.105-22.105h48.991c12.208 0 22.105 9.897 22.105 22.105 0 12.209-9.897 22.105-22.105 22.105z" fill="#ffdfcf"/><path d="m295.927 404.17h-42.873c-12.208 0-22.105-9.897-22.105-22.105 0-12.208 9.897-22.105 22.105-22.105h42.873c12.208 0 22.105 9.897 22.105 22.105 0 12.208-9.896 22.105-22.105 22.105z" fill="#ffdfcf"/><path d="m290.926 448.38h-37.872c-12.208 0-22.105-9.897-22.105-22.105 0-12.208 9.897-22.105 22.105-22.105h37.872c12.208 0 22.105 9.897 22.105 22.105.001 12.208-9.896 22.105-22.105 22.105z" fill="#ffdfcf"/><g fill="#ffcebf"><path d="m304.669 300.442h-51.615c-9.518 0-17.629-6.016-20.743-14.452-.88 2.385-1.362 4.963-1.362 7.653 0 12.208 9.897 22.105 22.105 22.105h51.615c12.208 0 22.105-9.897 22.105-22.105 0-2.691-.472-5.256-1.352-7.641-3.114 8.437-11.235 14.44-20.753 14.44z"/><path d="m302.045 344.652h-48.991c-9.518 0-17.635-6.024-20.748-14.46-.88 2.385-1.357 4.971-1.357 7.662 0 12.208 9.897 22.105 22.105 22.105h48.991c12.208 0 22.105-9.897 22.105-22.105 0-2.691-.474-5.264-1.354-7.649-3.114 8.436-11.233 14.447-20.751 14.447z"/><path d="m295.927 388.863h-42.873c-9.518 0-17.63-6.027-20.744-14.464-.88 2.385-1.361 4.975-1.361 7.665 0 12.208 9.897 22.105 22.105 22.105h42.873c12.208 0 22.105-9.897 22.105-22.105 0-2.691-.474-5.263-1.354-7.648-3.114 8.436-11.233 14.447-20.751 14.447z"/><path d="m290.927 433.073h-37.873c-9.518 0-17.633-6.024-20.747-14.46-.88 2.385-1.358 4.971-1.358 7.662 0 12.208 9.897 22.105 22.105 22.105h37.873c12.208 0 22.105-9.897 22.105-22.105 0-2.691-.479-5.277-1.359-7.662-3.114 8.436-11.229 14.46-20.746 14.46z"/></g><path d="m474.398 161.868h-404.816c-13.004 0-23.545-10.542-23.545-23.545v-107.278c0-13.003 10.541-23.545 23.545-23.545h404.816c13.004 0 23.545 10.542 23.545 23.545v107.277c.001 13.004-10.541 23.546-23.545 23.546z" fill="#f58a97"/><path d="m126.432 137.903c-21.735 0-39.354-17.62-39.354-39.354v-91.049h-17.496c-13.004 0-23.545 10.542-23.545 23.545v107.277c0 13.004 10.542 23.545 23.545 23.545h404.816c13.004 0 23.545-10.542 23.545-23.545v-.42h-371.511z" fill="#f07281"/></g></g><g><path d="m13.827 284.327h32.21c4.143 0 7.5-3.358 7.5-7.5s-3.357-7.5-7.5-7.5h-32.21c-4.143 0-7.5 3.358-7.5 7.5s3.357 7.5 7.5 7.5z"/><path d="m474.398 0h-24.585c-4.143 0-7.5 3.358-7.5 7.5s3.357 7.5 7.5 7.5h24.585c8.848 0 16.046 7.198 16.046 16.045v107.277c0 8.848-7.198 16.045-16.046 16.045h-404.816c-8.848 0-16.045-7.198-16.045-16.045v-9.935c0-4.142-3.357-7.5-7.5-7.5s-7.5 3.358-7.5 7.5v9.935c0 17.119 13.927 31.045 31.045 31.045h172.962v46.779h-37.308c-10.556 0-20.832 3.014-29.718 8.716l-69.28 44.464h-28.239c-4.143 0-7.5 3.358-7.5 7.5s3.357 7.5 7.5 7.5h30.438c1.437 0 2.842-.413 4.051-1.188l71.132-45.652c6.463-4.147 13.938-6.34 21.616-6.34h37.308v34.826c-11.15 4.25-19.095 15.047-19.095 27.671 0 1.439.109 2.853.308 4.238l-1.766 3.031c-10.148 17.427-28.98 28.253-49.147 28.253h-16.792c-4.143 0-7.5 3.358-7.5 7.5s3.357 7.5 7.5 7.5h16.792c23.328 0 45.238-11.469 58.617-30.3.615.656 1.258 1.285 1.929 1.883-6.093 5.426-9.941 13.323-9.941 22.105s3.847 16.679 9.941 22.105c-6.093 5.426-9.941 13.323-9.941 22.105s3.847 16.679 9.941 22.105c-6.093 5.427-9.941 13.323-9.941 22.105 0 2.515.318 4.958.911 7.291h-70.898c-7.163 0-14.268-1.82-20.548-5.263l-41.277-22.63c-1.228-.673-2.619-.988-4.015-.912l-72.204 3.947c-4.136.226-7.306 3.762-7.08 7.898.227 4.137 3.786 7.31 7.898 7.08l70.066-3.83 39.4 21.601c8.483 4.652 18.082 7.11 27.759 7.11h80.143c2.617 2.286 5.636 4.121 8.939 5.38v50.326c0 4.142 3.357 7.5 7.5 7.5s7.5-3.358 7.5-7.5v-48.391h31.683v48.391c0 4.142 3.357 7.5 7.5 7.5s7.5-3.358 7.5-7.5v-51.559c9.661-4.88 16.306-14.894 16.306-26.437 0-7.661-2.926-14.652-7.718-19.914 7.679-5.354 12.718-14.245 12.718-24.296 0-7.435-2.761-14.233-7.304-19.438 8.074-5.293 13.422-14.417 13.422-24.772 0-8.174-3.33-15.583-8.704-20.946 6.891-5.425 11.328-13.833 11.328-23.264 0-16.325-13.28-29.605-29.604-29.605h-.443v-94.671h170.172c17.119 0 31.046-13.927 31.046-31.045v-107.279c-.001-17.118-13.928-31.045-31.047-31.045zm-235.949 337.854c0-8.053 6.552-14.605 14.605-14.605h48.99c8.054 0 14.605 6.552 14.605 14.605 0 8.054-6.552 14.605-14.605 14.605h-48.99c-8.053 0-14.605-6.551-14.605-14.605zm0 44.21c0-8.053 6.552-14.605 14.605-14.605h42.873c8.053 0 14.604 6.552 14.604 14.605s-6.552 14.605-14.604 14.605h-42.873c-8.053 0-14.605-6.551-14.605-14.605zm52.478 58.816h-37.872c-8.054 0-14.605-6.552-14.605-14.605 0-8.054 6.552-14.605 14.605-14.605h37.872c8.054 0 14.605 6.552 14.605 14.605s-6.552 14.605-14.605 14.605zm28.347-147.236c0 8.053-6.552 14.605-14.604 14.605h-51.615c-8.054 0-14.605-6.552-14.605-14.605 0-8.054 6.552-14.605 14.605-14.605h51.615c8.052 0 14.604 6.551 14.604 14.605zm-30.048-29.605h-31.683v-94.671h31.683z"/><path d="m46.037 103.925c4.143 0 7.5-3.358 7.5-7.5v-65.38c0-8.847 7.197-16.045 16.045-16.045h348.268c4.143 0 7.5-3.358 7.5-7.5s-3.357-7.5-7.5-7.5h-348.268c-17.118 0-31.045 13.927-31.045 31.045v65.38c0 4.142 3.357 7.5 7.5 7.5z"/><path d="m154.894 108.649h-21.312c-4.143 0-7.5 3.358-7.5 7.5s3.357 7.5 7.5 7.5h21.312c12.811 0 23.232-10.422 23.232-23.233s-10.422-23.232-23.232-23.232h-5.579c-4.539 0-8.232-3.693-8.232-8.233s3.693-8.232 8.232-8.232h17.521c4.143 0 7.5-3.358 7.5-7.5s-3.357-7.5-7.5-7.5h-17.521c-12.811 0-23.232 10.422-23.232 23.232s10.422 23.233 23.232 23.233h5.579c4.539 0 8.232 3.693 8.232 8.232s-3.693 8.233-8.232 8.233z"/><path d="m212.898 123.649c4.143 0 7.5-3.358 7.5-7.5v-55.43h12.437c4.143 0 7.5-3.358 7.5-7.5s-3.357-7.5-7.5-7.5h-39.873c-4.143 0-7.5 3.358-7.5 7.5s3.357 7.5 7.5 7.5h12.437v55.431c-.001 4.142 3.357 7.499 7.499 7.499z"/><path d="m247.362 74.215v20.937c0 15.713 12.783 28.497 28.496 28.497s28.497-12.784 28.497-28.497v-20.937c0-15.713-12.784-28.497-28.497-28.497s-28.496 12.784-28.496 28.497zm41.993 0v20.937c0 7.442-6.055 13.497-13.497 13.497-7.441 0-13.496-6.055-13.496-13.497v-20.937c0-7.442 6.055-13.497 13.496-13.497 7.443.001 13.497 6.055 13.497 13.497z"/><path d="m340.506 45.719c-10.111 0-18.338 8.226-18.338 18.337v52.093c0 4.142 3.357 7.5 7.5 7.5s7.5-3.358 7.5-7.5v-17.565h9.288c14.575 0 26.433-11.857 26.433-26.433s-11.857-26.433-26.433-26.433h-5.95zm17.382 26.432c0 6.304-5.129 11.433-11.433 11.433h-9.288v-19.528c0-1.84 1.497-3.337 3.338-3.337h5.95c6.305 0 11.433 5.128 11.433 11.432z"/><path d="m401.628 101.164c-4.143 0-7.5 3.358-7.5 7.5v7.485c0 4.142 3.357 7.5 7.5 7.5s7.5-3.358 7.5-7.5v-7.485c0-4.142-3.358-7.5-7.5-7.5z"/><path d="m409.128 53.219c0-4.142-3.357-7.5-7.5-7.5s-7.5 3.358-7.5 7.5v29.049c0 4.142 3.357 7.5 7.5 7.5s7.5-3.358 7.5-7.5z"/></g></g></svg>