<?xml version="1.0" encoding="iso-8859-1"?>
<!-- Generator: Adobe Illustrator 19.0.0, SVG Export Plug-In . SVG Version: 6.00 Build 0)  -->
<svg version="1.1" id="Capa_1" xmlns="http://www.w3.org/2000/svg" xmlns:xlink="http://www.w3.org/1999/xlink" x="0px" y="0px"
	 viewBox="0 0 512.003 512.003" style="enable-background:new 0 0 512.003 512.003;" xml:space="preserve">
<g>
	<g>
		<path style="fill:#BDC3C7;" d="M237.188,77.38c-1.345,0.001-2.671-0.313-3.873-0.915L113.272,16.444
			c-4.287-2.144-6.025-7.357-3.881-11.644c2.144-4.287,7.357-6.025,11.644-3.881l120.042,60.021c3.602,1.8,5.493,5.842,4.566,9.761
			C244.716,74.619,241.215,77.385,237.188,77.38z"/>
		<path style="fill:#BDC3C7;" d="M261.798,83.889c-4.027,0.005-7.528-2.761-8.455-6.68c-0.927-3.919,0.963-7.96,4.565-9.761
			l133.059-66.53c4.285-2.13,9.486-0.39,11.626,3.891c2.14,4.28,0.412,9.485-3.863,11.635L265.671,82.973
			C264.469,83.576,263.143,83.889,261.798,83.889z"/>
	</g>
	<g>
		<path style="fill:#805333;" d="M195.256,104.139c0-33.549,27.197-60.746,60.746-60.746s60.746,27.197,60.746,60.746v17.356
			H195.256V104.139z"/>
		<path style="fill:#805333;" d="M39.052,459.935h86.78v43.39c0,4.793-3.885,8.678-8.678,8.678H47.73
			c-4.793,0-8.678-3.885-8.678-8.678V459.935z"/>
		<path style="fill:#805333;" d="M386.171,459.935h86.78v43.39c0,4.793-3.885,8.678-8.678,8.678h-69.424
			c-4.793,0-8.678-3.885-8.678-8.678V459.935z"/>
	</g>
	<path style="fill:#CB8252;" d="M13.018,104.139h485.966c4.793,0,8.678,3.885,8.678,8.678v364.475c0,4.793-3.885,8.678-8.678,8.678
		H13.018c-4.793,0-8.678-3.885-8.678-8.678V112.817C4.34,108.024,8.226,104.139,13.018,104.139z"/>
	<path style="fill:#5E5F62;" d="M73.764,138.85h260.339c19.171,0,34.712,15.541,34.712,34.712v242.983
		c0,19.171-15.541,34.712-34.712,34.712H73.764c-19.171,0-34.712-15.541-34.712-34.712V173.562
		C39.052,154.391,54.593,138.85,73.764,138.85z"/>
	<path style="fill:#D1D4D1;" d="M438.239,173.562v34.712h-26.034c-4.787-0.014-8.664-3.891-8.678-8.678v-26.034H438.239z"/>
	<path style="fill:#E6E7E8;" d="M472.951,173.562v26.034c-0.014,4.787-3.891,8.664-8.678,8.678h-26.034v-34.712H472.951z"/>
	<path style="fill:#D1D4D1;" d="M472.951,147.528v26.034h-34.712V138.85h26.034C469.06,138.864,472.937,142.741,472.951,147.528z"/>
	<path style="fill:#E6E7E8;" d="M438.239,138.85v34.712h-34.712v-26.034c0.014-4.787,3.891-8.664,8.678-8.678H438.239z"/>
	<g>
		<path style="fill:#ECF0F1;" d="M412.205,277.698c-1.134-0.014-2.254-0.25-3.297-0.695c-3.306-1.249-5.464-4.45-5.381-7.983
			c0.013-1.135,0.25-2.257,0.695-3.301c0.793-2.177,2.509-3.893,4.686-4.686c3.233-1.351,6.961-0.632,9.458,1.826
			c0.766,0.843,1.382,1.81,1.822,2.86c0.445,1.044,0.681,2.166,0.694,3.301c-0.013,0.582-0.073,1.161-0.178,1.733
			c-0.091,0.545-0.265,1.072-0.517,1.564c-0.191,0.553-0.453,1.078-0.78,1.564c-0.347,0.432-0.695,0.864-1.042,1.301
			C416.701,276.764,414.502,277.662,412.205,277.698z"/>
		<path style="fill:#ECF0F1;" d="M438.239,277.698c-2.301-0.016-4.507-0.917-6.161-2.517c-3.356-3.422-3.356-8.9,0-12.322
			c2.048-2.035,4.975-2.914,7.805-2.343c0.576,0.08,1.134,0.255,1.653,0.517c0.552,0.191,1.077,0.454,1.559,0.784
			c0.432,0.347,0.873,0.695,1.305,1.042c0.347,0.432,0.695,0.864,1.042,1.301c0.326,0.484,0.588,1.008,0.78,1.559
			c0.252,0.492,0.426,1.019,0.517,1.564c0.106,0.573,0.165,1.154,0.178,1.737c-0.013,0.553-0.073,1.105-0.178,1.648
			c-0.078,0.575-0.253,1.132-0.517,1.648c-0.173,0.533-0.437,1.031-0.78,1.475c-0.347,0.521-0.695,0.953-1.042,1.39
			C442.735,276.764,440.536,277.662,438.239,277.698z"/>
		<path style="fill:#ECF0F1;" d="M412.205,303.732c-1.134-0.014-2.254-0.25-3.297-0.695c-1.062-0.42-2.034-1.039-2.864-1.822
			c-1.587-1.662-2.486-3.863-2.517-6.161c-0.079-3.534,2.077-6.734,5.381-7.987c3.232-1.36,6.965-0.64,9.458,1.826
			c0.347,0.432,0.695,0.864,1.042,1.301c0.326,0.484,0.588,1.008,0.78,1.559c0.252,0.492,0.426,1.019,0.517,1.564
			c0.105,0.574,0.165,1.155,0.178,1.738c-0.013,0.553-0.073,1.105-0.178,1.648c-0.078,0.575-0.253,1.132-0.517,1.648
			c-0.173,0.533-0.437,1.031-0.78,1.475c-0.347,0.521-0.695,0.953-1.042,1.39C416.71,302.811,414.505,303.712,412.205,303.732z"/>
		<path style="fill:#ECF0F1;" d="M438.239,303.732c-3.509-0.014-6.667-2.131-8.013-5.372c-1.346-3.241-0.616-6.972,1.851-9.467
			c2.077-1.985,4.978-2.856,7.805-2.343c0.576,0.08,1.134,0.255,1.653,0.517c0.552,0.191,1.077,0.454,1.559,0.784
			c0.432,0.347,0.873,0.695,1.305,1.042c0.347,0.432,0.695,0.864,1.042,1.301c0.326,0.484,0.588,1.008,0.78,1.559
			c0.252,0.492,0.426,1.019,0.517,1.564c0.237,1.145,0.237,2.326,0,3.47c-0.091,0.545-0.265,1.072-0.517,1.564
			c-0.191,0.553-0.453,1.078-0.78,1.564c-0.347,0.432-0.695,0.864-1.042,1.301c-0.432,0.347-0.873,0.695-1.305,1.038
			c-0.483,0.33-1.007,0.593-1.559,0.784c-0.519,0.262-1.077,0.438-1.653,0.521C439.34,303.658,438.79,303.716,438.239,303.732z"/>
		<path style="fill:#ECF0F1;" d="M464.273,303.732c-2.297-0.034-4.497-0.933-6.161-2.517c-0.766-0.844-1.382-1.813-1.822-2.864
			c-0.927-2.102-0.927-4.496,0-6.597c0.419-1.061,1.037-2.032,1.822-2.86c3.479-3.212,8.843-3.212,12.322,0
			c0.766,0.843,1.382,1.81,1.822,2.86c0.927,2.102,0.927,4.496,0,6.597c-0.44,1.052-1.056,2.02-1.822,2.864
			C468.777,302.811,466.573,303.712,464.273,303.732z"/>
		<path style="fill:#ECF0F1;" d="M464.273,277.698c-4.092-0.04-7.589-2.96-8.358-6.98c-0.769-4.02,1.403-8.024,5.192-9.571
			c3.789-1.547,8.143-0.209,10.408,3.2c2.265,3.408,1.813,7.941-1.081,10.835c-0.432,0.347-0.873,0.695-1.305,1.038
			c-0.483,0.33-1.007,0.593-1.559,0.784c-0.492,0.248-1.017,0.423-1.559,0.521C465.436,277.624,464.855,277.682,464.273,277.698z"/>
		<path style="fill:#ECF0F1;" d="M412.205,329.766c-1.134-0.014-2.254-0.25-3.297-0.695c-2.18-0.79-3.896-2.507-4.686-4.686
			c-0.445-1.043-0.681-2.163-0.695-3.297c-0.079-3.534,2.077-6.734,5.381-7.987c3.236-1.317,6.945-0.601,9.458,1.826
			c2.503,2.483,3.256,6.233,1.904,9.489C418.918,327.672,415.73,329.786,412.205,329.766z"/>
		<path style="fill:#ECF0F1;" d="M438.239,329.766c-0.582-0.02-1.163-0.078-1.737-0.174c-0.542-0.096-1.068-0.272-1.559-0.521
			c-0.555-0.191-1.082-0.454-1.568-0.784c-0.432-0.344-0.864-0.691-1.297-1.038c-2.201-2.201-3.061-5.41-2.255-8.417
			c0.806-3.007,3.154-5.356,6.161-6.161c3.007-0.806,6.215,0.054,8.417,2.255c0.347,0.432,0.695,0.864,1.042,1.386
			c0.341,0.444,0.604,0.943,0.78,1.475c0.265,0.518,0.44,1.076,0.517,1.653c0.105,0.544,0.165,1.095,0.178,1.649
			c-0.013,0.581-0.073,1.161-0.178,1.733c-0.091,0.545-0.265,1.072-0.517,1.563c-0.191,0.553-0.453,1.078-0.78,1.564
			c-0.347,0.432-0.695,0.864-1.042,1.301c-0.432,0.347-0.873,0.695-1.305,1.038c-0.483,0.33-1.007,0.593-1.559,0.784
			c-0.519,0.262-1.077,0.438-1.653,0.521C439.34,329.692,438.79,329.75,438.239,329.766z"/>
		<path style="fill:#ECF0F1;" d="M464.273,329.766c-2.297-0.034-4.497-0.933-6.161-2.517c-0.372-0.413-0.72-0.848-1.042-1.301
			c-0.33-0.483-0.592-1.009-0.78-1.564c-0.25-0.493-0.427-1.02-0.525-1.564c-0.098-0.573-0.155-1.152-0.169-1.733
			c-0.032-1.14,0.206-2.271,0.695-3.301c0.419-1.061,1.037-2.032,1.822-2.86c3.479-3.212,8.843-3.212,12.322,0
			c0.766,0.843,1.382,1.81,1.822,2.86c0.445,1.044,0.681,2.166,0.694,3.301c-0.013,0.581-0.073,1.161-0.178,1.733
			c-0.091,0.545-0.265,1.072-0.517,1.563c-0.191,0.553-0.453,1.078-0.78,1.564c-0.347,0.432-0.695,0.864-1.042,1.301
			C468.769,328.831,466.57,329.73,464.273,329.766z"/>
	</g>
	<circle style="fill:#E6E7E8;" cx="438.239" cy="407.867" r="43.39"/>
	<path style="fill:#BDC3C7;" d="M455.595,407.867c-0.583-0.016-1.163-0.074-1.737-0.174c-0.542-0.096-1.068-0.272-1.559-0.521
		c-0.555-0.191-1.082-0.454-1.568-0.784c-0.432-0.344-0.864-0.691-1.297-1.038c-1.587-1.662-2.486-3.863-2.517-6.161
		c-0.032-1.14,0.206-2.271,0.695-3.301c0.44-1.05,1.056-2.018,1.822-2.86c0.41-0.374,0.843-0.722,1.297-1.042
		c0.486-0.33,1.013-0.593,1.568-0.784c0.491-0.25,1.016-0.424,1.559-0.517c1.112-0.263,2.27-0.263,3.381,0
		c0.576,0.08,1.134,0.255,1.653,0.517c0.552,0.191,1.077,0.454,1.559,0.784c0.456,0.32,0.892,0.668,1.305,1.042
		c0.766,0.843,1.382,1.81,1.822,2.86c0.485,1.031,0.723,2.162,0.694,3.301c0.022,2.308-0.885,4.529-2.517,6.161
		S457.903,407.89,455.595,407.867z"/>
	<g>
		<path style="fill:#A5A5A4;" d="M334.103,182.24h-8.678c-4.793,0-8.678-3.885-8.678-8.678c0-4.793,3.885-8.678,8.678-8.678h8.678
			c4.793,0,8.678,3.885,8.678,8.678C342.781,178.355,338.896,182.24,334.103,182.24z"/>
		<path style="fill:#A5A5A4;" d="M290.713,182.24h-78.102c-4.793,0-8.678-3.885-8.678-8.678c0-4.793,3.885-8.678,8.678-8.678h78.102
			c4.793,0,8.678,3.885,8.678,8.678C299.391,178.355,295.506,182.24,290.713,182.24z"/>
	</g>
</g>
<g>
</g>
<g>
</g>
<g>
</g>
<g>
</g>
<g>
</g>
<g>
</g>
<g>
</g>
<g>
</g>
<g>
</g>
<g>
</g>
<g>
</g>
<g>
</g>
<g>
</g>
<g>
</g>
<g>
</g>
</svg>
